<svg data-v-0dd9719b="" version="1.0" xmlns="http://www.w3.org/2000/svg" xmlns:xlink="http://www.w3.org/1999/xlink" width="100%" height="100%" viewBox="0 0 340.000000 250.000000" preserveAspectRatio="xMidYMid meet" color-interpolation-filters="sRGB" style="margin: auto;"> <rect data-v-0dd9719b="" x="0" y="0" width="100%" height="100%" fill="#ffffff" fill-opacity="1" class="background"></rect> <rect data-v-0dd9719b="" x="0" y="0" width="100%" height="100%" fill="url(#watermark)" fill-opacity="1" class="watermarklayer"></rect> <g data-v-0dd9719b="" fill="#333333" class="icon-text-wrapper icon-svg-group iconsvg" transform="translate(27.280303955078125,95)"><g class="iconsvg-imagesvg" transform="translate(0,0)"><g><rect fill="#333333" fill-opacity="0" stroke-width="2" x="0" y="0" width="60" height="60" class="image-rect"></rect> <svg x="0" y="0" width="60" height="60" filtersec="colorsb9516985767" class="image-svg-svg primary" style="overflow: visible;"><svg xmlns="http://www.w3.org/2000/svg" viewBox="-0.053900331258773804 -0.006093347445130348 75.0999984741211 75.0999984741211"><g><g><path d="M66.41 13.59L61.51 32A24.62 24.62 0 1 1 43 13.53l18.43-4.92a37.55 37.55 0 1 0 5 5z" fill="#333333"></path><path d="M58.14 32.69L64.05 11l-21.67 5.9a21.2 21.2 0 1 0 15.76 15.79zM31.88 43.15a8 8 0 1 1 11.29 0 8 8 0 0 1-11.29 0z" fill="#fd5f00"></path></g></g></svg></svg> <!----></g></g> <g transform="translate(67,3.563751220703125)"><g data-gra="path-name" fill-rule="" class="tp-name iconsvg-namesvg" transform="translate(0,0)"><g transform="scale(1)"><g><path d="M28.04-4.39L21.73-4.39Q22.47-4.02 23.23-3.59 23.98-3.16 24.68-2.75 25.38-2.34 25.99-1.95 26.61-1.56 26.98-1.23L26.98-1.23 24.93 2.71Q24.48 2.3 23.82 1.78 23.17 1.27 22.43 0.72 21.69 0.16 20.91-0.39 20.13-0.94 19.39-1.44L19.39-1.44Q18.29 0 16.48 1.27 14.68 2.54 11.93 3.73L11.93 3.73 9.68-0.33 9.68 4.26 4.96 4.26 4.96-9.92Q4.47-9.31 3.98-8.69 3.49-8.08 2.99-7.5L2.99-7.5 0.78-12.26Q2.99-14.6 4.86-17.47 6.72-20.34 8.04-23.17L8.04-23.17 11.73-21.24 11.73-23.17 9.84-25.09Q11.77-26.9 13.39-28.99 15.01-31.08 15.99-33.41L15.99-33.41 20.42-32.23 19.27-30.34 25.91-30.34 25.91-26.69 23.86-24.31 27.1-24.31 27.1-10.09 21.73-10.09Q21.73-9.63 21.71-9.18 21.69-8.73 21.65-8.28L21.65-8.28 28.04-8.28 28.04-4.39ZM8.53-32.92L12.59-30.34Q11.77-29.07 10.74-27.7 9.72-26.32 8.57-24.97 7.42-23.62 6.27-22.37 5.13-21.12 4.1-20.13L4.1-20.13 1.35-24.31Q3.44-26.16 5.29-28.37 7.13-30.59 8.53-32.92L8.53-32.92ZM36.98-30.63L36.98-25.71 27.76-25.71 27.76-30.63 36.98-30.63ZM21.03-26.57L16.73-26.57Q16.28-25.99 15.85-25.44 15.42-24.89 14.92-24.31L14.92-24.31 19.07-24.31 21.03-26.57ZM37.8-20.87L37.8-15.91 35.38-15.91 35.38-0.53Q35.38 0.86 35.14 1.68 34.89 2.5 34.32 2.99 33.74 3.49 32.76 3.73 31.78 3.98 30.3 4.14L30.3 4.14 28.74 4.35 27.27-0.57 28.7-0.74Q29.77-0.86 30.03-1.25 30.3-1.64 30.3-2.54L30.3-2.54 30.3-15.91 27.88-15.91 27.88-20.87 37.8-20.87ZM17.55-19.07L17.55-20.79 15.46-20.79 15.46-19.07 17.55-19.07ZM23.49-19.07L23.49-20.79 21.48-20.79 21.48-19.07 23.49-19.07ZM9.68-16.61L9.68-0.53Q12.51-1.52 14.02-2.38 15.54-3.24 16.24-4.39L16.24-4.39 10.78-4.39 10.78-8.28 17.1-8.28Q17.14-8.69 17.14-9.14 17.14-9.59 17.14-10.09L17.14-10.09 11.73-10.09 11.73-20.34Q10.87-18.53 9.68-16.61L9.68-16.61ZM15.46-15.29L15.46-13.41 17.55-13.41 17.55-15.29 15.46-15.29ZM21.48-13.41L23.49-13.41 23.49-15.29 21.48-15.29 21.48-13.41ZM74.99-11.07L64.04-11.07 64.04-2.54Q64.04-0.61 63.86 0.55 63.67 1.72 63.06 2.42 62.44 3.12 61.27 3.44 60.11 3.77 58.18 3.94L58.18 3.94 55.55 4.18 53.87-0.82 56.33-1.07Q57.2-1.15 57.69-1.29 58.18-1.44 58.4-1.76 58.63-2.09 58.69-2.73 58.75-3.36 58.75-4.47L58.75-4.47 58.75-11.07 46.17-11.07 46.17-15.95Q47.6-17.84 48.89-19.72 50.18-21.61 51.33-23.7L51.33-23.7 44.28-23.7 44.4-28.62 53.79-28.62Q54.24-29.68 54.69-30.81 55.15-31.94 55.6-33.13L55.6-33.13 61.3-31.9Q60.97-31.08 60.62-30.26 60.27-29.44 59.86-28.62L59.86-28.62 76.67-28.62 76.67-23.7 57.4-23.7Q54.9-19.11 52.56-15.91L52.56-15.91 58.75-15.91 58.75-21.73 64.04-21.53 64.04-15.91 74.99-15.91 74.99-11.07ZM51.13-10.41L54.98-7.3Q53.14-4.76 50.61-2.05 48.09 0.66 44.69 3.12L44.69 3.12 41.33-1.03Q44.12-2.91 46.7-5.39 49.28-7.87 51.13-10.41L51.13-10.41ZM65.76-6.77L68.92-10.41Q72-8.08 74.46-5.84 76.92-3.61 79.13-1.31L79.13-1.31 75.89 2.87Q73.92 0.57 71.26-1.99 68.59-4.55 65.76-6.77L65.76-6.77ZM117.71-29.19L117.71-24.48 84.09-24.48 84.09-29.19 98.24-29.19 97.46-32.47 102.91-32.72 103.65-29.19 117.71-29.19ZM114.02-9.14L103.94-9.14 103.94-2.34Q103.94-0.33 103.71 0.9 103.48 2.13 102.87 2.81 102.25 3.49 101.17 3.77 100.08 4.06 98.4 4.22L98.4 4.22 95.33 4.51 93.6-0.53 96.8-0.9Q97.99-1.07 98.3-1.64 98.61-2.21 98.61-3.81L98.61-3.81 98.61-9.14 87.7-9.14 87.7-22.3 114.02-22.3 114.02-9.14ZM92.99-17.59L92.99-13.78 108.77-13.78 108.77-17.59 92.99-17.59ZM91.39-8.81L95.24-5.54Q92.58-2.75 90.22-0.59 87.86 1.56 85.4 3.44L85.4 3.44 82-0.74Q83.44-1.72 84.64-2.64 85.85-3.57 86.96-4.51 88.07-5.45 89.13-6.5 90.2-7.54 91.39-8.81L91.39-8.81ZM106.19-4.96L109.14-8.77Q111.93-6.81 114.53-4.82 117.14-2.83 119.56-0.61L119.56-0.61 116.32 3.65Q114.19 1.35 111.62-0.76 109.06-2.87 106.19-4.96L106.19-4.96ZM140.06-1.23L140.06-1.23Q144.98-1.11 149.71-1.17 154.45-1.23 159.41-1.44L159.41-1.44 158.14 3.36Q153.55 3.53 148.87 3.53 144.2 3.53 139.52 3.44L139.52 3.44Q137.35 3.4 135.65 3.2 133.95 2.99 132.57 2.46 131.2 1.93 130.13 1.07 129.07 0.21 128.21-1.15L128.21-1.15Q127.84 0.08 127.35 1.33 126.85 2.58 126.28 3.98L126.28 3.98 122.1 2.38Q123 0.33 123.68-1.37 124.35-3.08 124.78-4.86 125.21-6.64 125.42-8.77 125.62-10.91 125.62-13.82L125.62-13.82 129.85-13.65Q129.85-11.89 129.79-10.39 129.72-8.9 129.56-7.54L129.56-7.54Q130.18-5.54 131.28-4.14L131.28-4.14 131.28-15.38 124.03-15.38 124.03-19.97 130.46-19.97 130.46-23.82 125.34-23.82 125.34-28.41 130.46-28.41 130.46-32.39 135.05-32.23 135.05-28.41 139.28-28.41 139.28-23.82 135.05-23.82 135.05-19.97 139.32-19.97 139.32-19.15Q141.41-20.87 142.33-22.8 143.25-24.72 143.58-26.73L143.58-26.73 139.89-26.73 139.89-31.37 157.19-31.37Q157.19-31.12 157.15-30.42 157.11-29.73 157.05-28.8 156.99-27.88 156.91-26.88 156.83-25.87 156.76-24.97 156.7-24.07 156.66-23.39 156.62-22.71 156.62-22.51L156.62-22.51Q156.54-20.99 156.27-20.11 156-19.23 155.43-18.76 154.86-18.29 153.93-18.1 153.01-17.92 151.66-17.79L151.66-17.79 149.16-17.59 147.72-22.02 149.32-22.18Q150.06-22.26 150.55-22.35 151.04-22.43 151.33-22.61 151.62-22.8 151.76-23.14 151.91-23.49 151.95-24.11L151.95-24.11Q152.03-24.89 152.05-25.48 152.07-26.08 152.11-26.73L152.11-26.73 147.85-26.73Q147.68-25.54 147.42-24.35 147.15-23.17 146.6-21.87 146.04-20.58 145.12-19.15 144.2-17.71 142.68-16.07L142.68-16.07 156.62-16.07 156.62-3.08 140.71-3.08 140.71-16.07 142.19-16.07 139.32-18.61 139.32-15.38 135.87-15.38 135.87-11.32 139.65-11.32 139.65-6.68 135.87-6.68 135.87-1.68Q136.78-1.48 137.82-1.37 138.87-1.27 140.06-1.23ZM145.3-11.81L145.3-7.42 151.99-7.42 151.99-11.81 145.3-11.81Z" transform="translate(-0.7799999713897705, 33.40999984741211)"></path></g> <!----> <!----> <!----> <!----> <!----> <!----> <!----></g></g> <g data-gra="path-slogan" fill-rule="" class="tp-slogan iconsvg-slogansvg" fill="#FD5F00" transform="translate(-59.80999755859375,42.91999816894531)"><rect width="0"></rect> <rect x="281.25" width="0"></rect> <g transform="translate(0,0)"><g transform="scale(1)"><path d="M2.06-5.06L6.56-5.06L6.56-8.58L7.73-8.58L7.73 0L6.56 0L6.56-3.98L2.06-3.98L2.06 0L0.89 0L0.89-8.58L2.06-8.58L2.06-5.06ZM19.83-1.03L24.98-1.03L24.98 0L18.66 0L18.66-8.58L24.89-8.58L24.89-7.59L19.83-7.59L19.83-4.92L24.52-4.92L24.52-3.89L19.83-3.89L19.83-1.03ZM36.89-8.58L41.20-1.64L41.20-8.58L42.33-8.58L42.33 0L41.02 0L36.66-6.94L36.61-6.94L36.61 0L35.48 0L35.48-8.58L36.89-8.58ZM59.53-3.61L56.91-3.61L56.91-4.59L60.66-4.59L60.66 0L59.91 0L59.63-1.08Q58.64 0.09 56.81 0.14L56.81 0.14Q55.08 0.14 54.14-0.75L54.14-0.75Q52.73-2.06 52.78-4.36L52.78-4.36Q53.11-8.63 56.86-8.81L56.86-8.81Q60.05-8.63 60.52-6L60.52-6L59.39-6Q58.92-7.78 56.81-7.83L56.81-7.83Q54.14-7.64 54-4.31L54-4.31Q54-0.75 56.86-0.75L56.86-0.75Q57.89-0.75 58.64-1.31L58.64-1.31Q59.58-2.06 59.53-3.61L59.53-3.61ZM74.95 0L71.48 0L71.48-8.58L75-8.58Q78.47-8.39 78.61-4.41L78.61-4.41Q78.42-0.09 74.95 0L74.95 0ZM74.81-7.64L72.66-7.64L72.66-0.98L74.91-0.98Q77.34-1.13 77.44-4.31L77.44-4.31Q77.39-7.55 74.81-7.64L74.81-7.64ZM95.86-4.27L95.86-4.27Q95.67-7.64 92.86-7.83L92.86-7.83Q90-7.69 89.86-4.27L89.86-4.27Q90-0.94 92.86-0.80L92.86-0.80Q95.67-0.98 95.86-4.27ZM97.03-4.27L97.03-4.27Q96.75 0 92.86 0.14L92.86 0.14Q88.92 0 88.64-4.27L88.64-4.27Q88.88-8.72 92.86-8.81L92.86-8.81Q96.75-8.67 97.03-4.27ZM108.80-8.58L113.11-1.64L113.11-8.58L114.23-8.58L114.23 0L112.92 0L108.56-6.94L108.52-6.94L108.52 0L107.39 0L107.39-8.58L108.80-8.58ZM131.44-3.61L128.81-3.61L128.81-4.59L132.56-4.59L132.56 0L131.81 0L131.53-1.08Q130.55 0.09 128.72 0.14L128.72 0.14Q126.98 0.14 126.05-0.75L126.05-0.75Q124.64-2.06 124.69-4.36L124.69-4.36Q125.02-8.63 128.77-8.81L128.77-8.81Q131.95-8.63 132.42-6L132.42-6L131.30-6Q130.83-7.78 128.72-7.83L128.72-7.83Q126.05-7.64 125.91-4.31L125.91-4.31Q125.91-0.75 128.77-0.75L128.77-0.75Q129.80-0.75 130.55-1.31L130.55-1.31Q131.48-2.06 131.44-3.61L131.44-3.61ZM154.97-1.92L154.97-2.77L156.05-2.77L156.05-2.16Q156.05-0.75 157.36-0.75L157.36-0.75Q158.72-0.75 158.72-2.25L158.72-2.25L158.72-8.58L159.89-8.58L159.89-2.30Q159.84 0.09 157.41 0.14L157.41 0.14Q155.11 0.09 154.97-1.92L154.97-1.92ZM170.86-8.58L172.03-8.58L172.03 0L170.86 0L170.86-8.58ZM184.41-8.58L188.72-1.64L188.72-8.58L189.84-8.58L189.84 0L188.53 0L184.17-6.94L184.13-6.94L184.13 0L183 0L183-8.58L184.41-8.58ZM207.05-3.61L204.42-3.61L204.42-4.59L208.17-4.59L208.17 0L207.42 0L207.14-1.08Q206.16 0.09 204.33 0.14L204.33 0.14Q202.59 0.14 201.66-0.75L201.66-0.75Q200.25-2.06 200.30-4.36L200.30-4.36Q200.63-8.63 204.38-8.81L204.38-8.81Q207.56-8.63 208.03-6L208.03-6L206.91-6Q206.44-7.78 204.33-7.83L204.33-7.83Q201.66-7.64 201.52-4.31L201.52-4.31Q201.52-0.75 204.38-0.75L204.38-0.75Q205.41-0.75 206.16-1.31L206.16-1.31Q207.09-2.06 207.05-3.61L207.05-3.61ZM226.13-6.05L226.13-6.05L225-6.05Q224.58-7.78 222.61-7.83L222.61-7.83Q219.89-7.69 219.80-4.36L219.80-4.36Q219.80-0.80 222.66-0.80L222.66-0.80Q224.63-0.84 225.09-3.19L225.09-3.19L226.22-3.19Q225.70 0.05 222.42 0.14L222.42 0.14Q218.67 0 218.58-4.31L218.58-4.31Q218.77-8.63 222.61-8.81L222.61-8.81Q225.66-8.72 226.13-6.05ZM237.75-5.06L242.25-5.06L242.25-8.58L243.42-8.58L243.42 0L242.25 0L242.25-3.98L237.75-3.98L237.75 0L236.58 0L236.58-8.58L237.75-8.58L237.75-5.06ZM259.88 0L259.03-2.48L255.56-2.48L254.67 0L253.50 0L256.73-8.58L258.05-8.58L261.14 0L259.88 0ZM257.30-7.31L255.94-3.52L258.61-3.52L257.34-7.31L257.30-7.31ZM277.97-4.27L277.97-4.27Q277.78-7.64 274.97-7.83L274.97-7.83Q272.11-7.69 271.97-4.27L271.97-4.27Q272.11-0.94 274.97-0.80L274.97-0.80Q277.78-0.98 277.97-4.27ZM279.14-4.27L279.14-4.27Q278.86 0 274.97 0.14L274.97 0.14Q271.03 0 270.75-4.27L270.75-4.27Q270.98-8.72 274.97-8.81L274.97-8.81Q278.86-8.67 279.14-4.27Z" transform="translate(-0.890625, 8.8125)"></path></g></g></g></g></g><defs v-gra="od"></defs></svg>